# xmcd
#
# Track frame offsets:
#	150
#	14040
#	24625
#	46674
#	59451
#	71071
#	75621
#	89453
#	100050
#	114647
#	131770
#	152314
#	169740
#	183760
#
# Disc length: 2568 seconds
#
# Revision: 1
# Processed by: cddbd v1.5.1PL0 Copyright (c) Steve Scherf et al.
# Submitted via: audiograbber 1.83.01
#
DISCID=b00a060e
DTITLE=Shrimp Boat - Speckly
DYEAR=1989
DGENRE=Rock
TTITLE0=Planter's Song
TTITLE1=Seven Crows
TTITLE2=Melon Song
TTITLE3=Greenhouse
TTITLE4=Shady Grove
TTITLE5=Lemmings Leaf
TTITLE6=An Orchid Is Not a Rose
TTITLE7=Triangle Song
TTITLE8=Green Island
TTITLE9=Speckly
TTITLE10=Houston Tower
TTITLE11=Drought of '43
TTITLE12=Hyatt Ridge Circle Dance
TTITLE13=Country Wagon
EXTD=
EXTT0=
EXTT1=
EXTT2=
EXTT3=
EXTT4=
EXTT5=
EXTT6=
EXTT7=
EXTT8=
EXTT9=
EXTT10=
EXTT11=
EXTT12=
EXTT13=
PLAYORDER=
